<?xml version="1.0" standalone="no"?>
<svg viewBox="0 0 200 200" xmlns="http://www.w3.org/2000/svg">
  <path fill="#4f46e5" fill-opacity="0.1" d="M44.7,-76.4C58.9,-69.2,72,-59.1,79.7,-45.8C87.4,-32.6,89.7,-16.3,88.9,-0.5C88.1,15.3,84.1,30.6,76.3,44.1C68.4,57.6,56.7,69.3,42.8,76.5C28.8,83.7,14.4,86.4,-0.2,86.7C-14.8,87,-29.6,84.9,-42.5,77.9C-55.3,70.9,-66.3,59,-73.4,45.2C-80.5,31.4,-83.7,15.7,-83.1,0.3C-82.5,-15,-78.2,-30,-70.3,-43.2C-62.4,-56.4,-50.9,-67.7,-37.6,-75.2C-24.2,-82.7,-9.1,-86.3,3.8,-83.1C16.7,-79.9,30.5,-83.6,44.7,-76.4Z" transform="translate(100 100)" />
</svg>
