<?xml version="1.0" encoding="UTF-8"?>
<svg width="200px" height="200px" viewBox="0 0 200 200" version="1.1" xmlns="http://www.w3.org/2000/svg">
  <g stroke="none" stroke-width="1" fill="none" fill-rule="evenodd">
    <g fill="#4f46e5" fill-opacity="0.1">
      <path d="M0,0 L40,0 L40,40 L0,40 L0,0 Z M20,10 C14.4771525,10 10,14.4771525 10,20 C10,25.5228475 14.4771525,30 20,30 C25.5228475,30 30,25.5228475 30,20 C30,14.4771525 25.5228475,10 20,10 Z"></path>
      <path d="M40,0 L80,0 L80,40 L40,40 L40,0 Z M60,10 C54.4771525,10 50,14.4771525 50,20 C50,25.5228475 54.4771525,30 60,30 C65.5228475,30 70,25.5228475 70,20 C70,14.4771525 65.5228475,10 60,10 Z"></path>
      <path d="M80,0 L120,0 L120,40 L80,40 L80,0 Z M100,10 C94.4771525,10 90,14.4771525 90,20 C90,25.5228475 94.4771525,30 100,30 C105.522847,30 110,25.5228475 110,20 C110,14.4771525 105.522847,10 100,10 Z"></path>
      <path d="M120,0 L160,0 L160,40 L120,40 L120,0 Z M140,10 C134.477153,10 130,14.4771525 130,20 C130,25.5228475 134.477153,30 140,30 C145.522847,30 150,25.5228475 150,20 C150,14.4771525 145.522847,10 140,10 Z"></path>
      <path d="M160,0 L200,0 L200,40 L160,40 L160,0 Z M180,10 C174.477153,10 170,14.4771525 170,20 C170,25.5228475 174.477153,30 180,30 C185.522847,30 190,25.5228475 190,20 C190,14.4771525 185.522847,10 180,10 Z"></path>
      <path d="M0,40 L40,40 L40,80 L0,80 L0,40 Z M20,50 C14.4771525,50 10,54.4771525 10,60 C10,65.5228475 14.4771525,70 20,70 C25.5228475,70 30,65.5228475 30,60 C30,54.4771525 25.5228475,50 20,50 Z"></path>
      <path d="M40,40 L80,40 L80,80 L40,80 L40,40 Z M60,50 C54.4771525,50 50,54.4771525 50,60 C50,65.5228475 54.4771525,70 60,70 C65.5228475,70 70,65.5228475 70,60 C70,54.4771525 65.5228475,50 60,50 Z"></path>
      <path d="M80,40 L120,40 L120,80 L80,80 L80,40 Z M100,50 C94.4771525,50 90,54.4771525 90,60 C90,65.5228475 94.4771525,70 100,70 C105.522847,70 110,65.5228475 110,60 C110,54.4771525 105.522847,50 100,50 Z"></path>
      <path d="M120,40 L160,40 L160,80 L120,80 L120,40 Z M140,50 C134.477153,50 130,54.4771525 130,60 C130,65.5228475 134.477153,70 140,70 C145.522847,70 150,65.5228475 150,60 C150,54.4771525 145.522847,50 140,50 Z"></path>
      <path d="M160,40 L200,40 L200,80 L160,80 L160,40 Z M180,50 C174.477153,50 170,54.4771525 170,60 C170,65.5228475 174.477153,70 180,70 C185.522847,70 190,65.5228475 190,60 C190,54.4771525 185.522847,50 180,50 Z"></path>
      <path d="M0,80 L40,80 L40,120 L0,120 L0,80 Z M20,90 C14.4771525,90 10,94.4771525 10,100 C10,105.522847 14.4771525,110 20,110 C25.5228475,110 30,105.522847 30,100 C30,94.4771525 25.5228475,90 20,90 Z"></path>
      <path d="M40,80 L80,80 L80,120 L40,120 L40,80 Z M60,90 C54.4771525,90 50,94.4771525 50,100 C50,105.522847 54.4771525,110 60,110 C65.5228475,110 70,105.522847 70,100 C70,94.4771525 65.5228475,90 60,90 Z"></path>
      <path d="M80,80 L120,80 L120,120 L80,120 L80,80 Z M100,90 C94.4771525,90 90,94.4771525 90,100 C90,105.522847 94.4771525,110 100,110 C105.522847,110 110,105.522847 110,100 C110,94.4771525 105.522847,90 100,90 Z"></path>
      <path d="M120,80 L160,80 L160,120 L120,120 L120,80 Z M140,90 C134.477153,90 130,94.4771525 130,100 C130,105.522847 134.477153,110 140,110 C145.522847,110 150,105.522847 150,100 C150,94.4771525 145.522847,90 140,90 Z"></path>
      <path d="M160,80 L200,80 L200,120 L160,120 L160,80 Z M180,90 C174.477153,90 170,94.4771525 170,100 C170,105.522847 174.477153,110 180,110 C185.522847,110 190,105.522847 190,100 C190,94.4771525 185.522847,90 180,90 Z"></path>
      <path d="M0,120 L40,120 L40,160 L0,160 L0,120 Z M20,130 C14.4771525,130 10,134.477153 10,140 C10,145.522847 14.4771525,150 20,150 C25.5228475,150 30,145.522847 30,140 C30,134.477153 25.5228475,130 20,130 Z"></path>
      <path d="M40,120 L80,120 L80,160 L40,160 L40,120 Z M60,130 C54.4771525,130 50,134.477153 50,140 C50,145.522847 54.4771525,150 60,150 C65.5228475,150 70,145.522847 70,140 C70,134.477153 65.5228475,130 60,130 Z"></path>
      <path d="M80,120 L120,120 L120,160 L80,160 L80,120 Z M100,130 C94.4771525,130 90,134.477153 90,140 C90,145.522847 94.4771525,150 100,150 C105.522847,150 110,145.522847 110,140 C110,134.477153 105.522847,130 100,130 Z"></path>
      <path d="M120,120 L160,120 L160,160 L120,160 L120,120 Z M140,130 C134.477153,130 130,134.477153 130,140 C130,145.522847 134.477153,150 140,150 C145.522847,150 150,145.522847 150,140 C150,134.477153 145.522847,130 140,130 Z"></path>
      <path d="M160,120 L200,120 L200,160 L160,160 L160,120 Z M180,130 C174.477153,130 170,134.477153 170,140 C170,145.522847 174.477153,150 180,150 C185.522847,150 190,145.522847 190,140 C190,134.477153 185.522847,130 180,130 Z"></path>
      <path d="M0,160 L40,160 L40,200 L0,200 L0,160 Z M20,170 C14.4771525,170 10,174.477153 10,180 C10,185.522847 14.4771525,190 20,190 C25.5228475,190 30,185.522847 30,180 C30,174.477153 25.5228475,170 20,170 Z"></path>
      <path d="M40,160 L80,160 L80,200 L40,200 L40,160 Z M60,170 C54.4771525,170 50,174.477153 50,180 C50,185.522847 54.4771525,190 60,190 C65.5228475,190 70,185.522847 70,180 C70,174.477153 65.5228475,170 60,170 Z"></path>
      <path d="M80,160 L120,160 L120,200 L80,200 L80,160 Z M100,170 C94.4771525,170 90,174.477153 90,180 C90,185.522847 94.4771525,190 100,190 C105.522847,190 110,185.522847 110,180 C110,174.477153 105.522847,170 100,170 Z"></path>
      <path d="M120,160 L160,160 L160,200 L120,200 L120,160 Z M140,170 C134.477153,170 130,174.477153 130,180 C130,185.522847 134.477153,190 140,190 C145.522847,190 150,185.522847 150,180 C150,174.477153 145.522847,170 140,170 Z"></path>
      <path d="M160,160 L200,160 L200,200 L160,200 L160,160 Z M180,170 C174.477153,170 170,174.477153 170,180 C170,185.522847 174.477153,190 180,190 C185.522847,190 190,185.522847 190,180 C190,174.477153 185.522847,170 180,170 Z"></path>
    </g>
  </g>
</svg>
